<?xml version="1.0" standalone="no"?><!DOCTYPE svg PUBLIC "-//W3C//DTD SVG 1.1//EN" "http://www.w3.org/Graphics/SVG/1.1/DTD/svg11.dtd">
<svg t="1555048252656" class="icon" style="" viewBox="0 0 1024 1024" version="1.1" xmlns="http://www.w3.org/2000/svg" p-id="10425"
     xmlns:xlink="http://www.w3.org/1999/xlink" width="200" height="200">
    <defs>
        <style type="text/css"></style>
    </defs>
    <path d="M512 1024C228.693333 1024 0 795.306667 0 512S228.693333 0 512 0s512 228.693333 512 512-228.693333 512-512 512z m54.613333-525.653333c47.786667 34.133333 112.64 30.72 157.013334-10.24l71.68-71.68c47.786667-47.786667 47.786667-122.88 0-167.253334-47.786667-47.786667-122.88-47.786667-167.253334 0l-71.68 71.68c-40.96 40.96-47.786667 109.226667-10.24 157.013334l-51.2 51.2c-47.786667-34.133333-112.64-30.72-157.013333 10.24l-71.68 71.68c-47.786667 47.786667-47.786667 122.88 0 167.253333 47.786667 47.786667 122.88 47.786667 167.253333 0l71.68-71.68c40.96-40.96 47.786667-109.226667 10.24-157.013333l51.2-51.2z m-75.093333 75.093333c20.48 34.133333 17.066667 78.506667-10.24 105.813333L409.6 754.346667c-34.133333 34.133333-88.746667 34.133333-119.466667 0s-34.133333-88.746667 0-119.466667l71.68-71.68c30.72-30.72 75.093333-34.133333 105.813334-10.24L409.6 607.573333c-6.826667 6.826667-6.826667 17.066667 0 23.893334s17.066667 6.826667 23.893333 0l58.026667-58.026667z m98.986667-98.986667l58.026666-58.026666c6.826667-6.826667 6.826667-17.066667 0-23.893334s-17.066667-6.826667-23.893333 0l-58.026667 58.026667c-20.48-34.133333-17.066667-78.506667 10.24-105.813333L648.533333 269.653333c34.133333-34.133333 88.746667-34.133333 119.466667 0s34.133333 88.746667 0 119.466667l-71.68 71.68c-27.306667 30.72-71.68 34.133333-105.813333 13.653333z"
          fill="#1296db" p-id="10426" data-spm-anchor-id="a313x.7781069.0.i15" class="selected"></path>
</svg>